<mxfile host="Electron" modified="2024-03-28T23:06:28.946Z" agent="Mozilla/5.0 (X11; Linux x86_64) AppleWebKit/537.36 (KHTML, like Gecko) draw.io/24.0.4 Chrome/120.0.6099.109 Electron/28.1.0 Safari/537.36" etag="c0y4uFgRvZNnb-YPKSi6" version="24.0.4" type="device">
  <diagram name="Page-1" id="MGHjbF667yMq8NIgmSbx">
    <mxGraphModel dx="4148" dy="2774" grid="0" gridSize="10" guides="1" tooltips="1" connect="1" arrows="1" fold="1" page="1" pageScale="1" pageWidth="850" pageHeight="1100" math="0" shadow="0">
      <root>
        <mxCell id="0" />
        <mxCell id="1" parent="0" />
        <mxCell id="DqBkRv8KrqaulyezYVrb-1" value="&lt;div&gt;Ιδιοκτήτης&amp;nbsp;&lt;/div&gt;&lt;div&gt;εστιατορίου&lt;/div&gt;" style="shape=umlActor;verticalLabelPosition=bottom;verticalAlign=top;html=1;outlineConnect=0;rounded=0;" parent="1" vertex="1">
          <mxGeometry x="1370" y="-206" width="30" height="60" as="geometry" />
        </mxCell>
        <mxCell id="DqBkRv8KrqaulyezYVrb-9" value="&lt;div&gt;Πελάτης&amp;nbsp;&lt;/div&gt;&lt;div&gt;εστιατορίου&lt;/div&gt;" style="shape=umlActor;verticalLabelPosition=bottom;verticalAlign=top;html=1;outlineConnect=0;rounded=0;" parent="1" vertex="1">
          <mxGeometry x="286" y="2" width="30" height="60" as="geometry" />
        </mxCell>
        <mxCell id="DqBkRv8KrqaulyezYVrb-10" value="Σερβιτόρος" style="shape=umlActor;verticalLabelPosition=bottom;verticalAlign=top;html=1;outlineConnect=0;rounded=0;" parent="1" vertex="1">
          <mxGeometry x="296" y="293" width="30" height="60" as="geometry" />
        </mxCell>
        <mxCell id="DqBkRv8KrqaulyezYVrb-11" value="Μάγειρας" style="shape=umlActor;verticalLabelPosition=bottom;verticalAlign=top;html=1;outlineConnect=0;rounded=0;" parent="1" vertex="1">
          <mxGeometry x="1272" y="37" width="30" height="60" as="geometry" />
        </mxCell>
        <mxCell id="DqBkRv8KrqaulyezYVrb-12" value="Ταμείας" style="shape=umlActor;verticalLabelPosition=bottom;verticalAlign=top;html=1;outlineConnect=0;rounded=0;" parent="1" vertex="1">
          <mxGeometry x="1272" y="283" width="30" height="60" as="geometry" />
        </mxCell>
        <mxCell id="DqBkRv8KrqaulyezYVrb-16" value="Διανομέας" style="shape=umlActor;verticalLabelPosition=bottom;verticalAlign=top;html=1;outlineConnect=0;rounded=0;" parent="1" vertex="1">
          <mxGeometry x="1272" y="391" width="30" height="60" as="geometry" />
        </mxCell>
        <mxCell id="DqBkRv8KrqaulyezYVrb-17" value="Παραγγελία" style="ellipse;whiteSpace=wrap;html=1;strokeWidth=5;rounded=0;" parent="1" vertex="1">
          <mxGeometry x="737" y="162" width="120" height="80" as="geometry" />
        </mxCell>
        <mxCell id="DqBkRv8KrqaulyezYVrb-18" value="&lt;div&gt;Πληρωμή&lt;/div&gt;&lt;div&gt;φαγητού&lt;br&gt;&lt;/div&gt;" style="ellipse;whiteSpace=wrap;html=1;rounded=0;" parent="1" vertex="1">
          <mxGeometry x="783" y="381" width="120" height="80" as="geometry" />
        </mxCell>
        <mxCell id="DqBkRv8KrqaulyezYVrb-20" value="&lt;div&gt;Δημιουργία&lt;/div&gt;&lt;div&gt;λογαριασμού&lt;br&gt;&lt;/div&gt;&lt;div&gt;υπαλλήλου&lt;/div&gt;" style="ellipse;whiteSpace=wrap;html=1;rounded=0;" parent="1" vertex="1">
          <mxGeometry x="748" y="-567" width="120" height="80" as="geometry" />
        </mxCell>
        <mxCell id="DqBkRv8KrqaulyezYVrb-21" value="&lt;div&gt;Επιλογή&lt;/div&gt;&lt;div&gt;καταστήματος&lt;br&gt;&lt;/div&gt;" style="ellipse;whiteSpace=wrap;html=1;strokeWidth=6;rounded=0;" parent="1" vertex="1">
          <mxGeometry x="451" y="-338" width="120" height="80" as="geometry" />
        </mxCell>
        <mxCell id="DqBkRv8KrqaulyezYVrb-22" value="Κράτηση" style="ellipse;whiteSpace=wrap;html=1;rounded=0;" parent="1" vertex="1">
          <mxGeometry x="576" y="-8" width="120" height="80" as="geometry" />
        </mxCell>
        <mxCell id="DqBkRv8KrqaulyezYVrb-23" value="Σκανάρισμα &lt;br&gt;QR code" style="ellipse;whiteSpace=wrap;html=1;rounded=0;" parent="1" vertex="1">
          <mxGeometry x="797" y="-210" width="120" height="80" as="geometry" />
        </mxCell>
        <mxCell id="DqBkRv8KrqaulyezYVrb-24" value="Check-in" style="ellipse;whiteSpace=wrap;html=1;strokeWidth=6;rounded=0;" parent="1" vertex="1">
          <mxGeometry x="576" y="-130" width="120" height="80" as="geometry" />
        </mxCell>
        <mxCell id="DqBkRv8KrqaulyezYVrb-27" value="Check-out" style="ellipse;whiteSpace=wrap;html=1;strokeWidth=6;rounded=0;" parent="1" vertex="1">
          <mxGeometry x="549" y="381" width="120" height="80" as="geometry" />
        </mxCell>
        <mxCell id="DqBkRv8KrqaulyezYVrb-28" value="&lt;div&gt;Προβολή&lt;/div&gt;&lt;div&gt;μενού&lt;br&gt;&lt;/div&gt;" style="ellipse;whiteSpace=wrap;html=1;rounded=0;" parent="1" vertex="1">
          <mxGeometry x="872" y="-130" width="120" height="80" as="geometry" />
        </mxCell>
        <mxCell id="DqBkRv8KrqaulyezYVrb-32" value="&lt;div&gt;Προβολή&lt;/div&gt;&lt;div&gt;ιστορικού παραγγελιών&lt;br&gt;&lt;/div&gt;" style="ellipse;whiteSpace=wrap;html=1;rounded=0;" parent="1" vertex="1">
          <mxGeometry x="437" y="-444" width="120" height="80" as="geometry" />
        </mxCell>
        <mxCell id="DqBkRv8KrqaulyezYVrb-34" value="&lt;div&gt;Προβολή εβδομαδιαίου&lt;/div&gt;&lt;div&gt;προγράμματος&lt;br&gt;&lt;/div&gt;" style="ellipse;whiteSpace=wrap;html=1;strokeWidth=6;rounded=0;" parent="1" vertex="1">
          <mxGeometry x="901" y="37" width="120" height="80" as="geometry" />
        </mxCell>
        <mxCell id="DqBkRv8KrqaulyezYVrb-35" value="&lt;div&gt;Προβολή &lt;br&gt;&lt;/div&gt;&lt;div&gt;εκκρεμών&lt;/div&gt;&lt;div&gt;Tasks&lt;/div&gt;" style="ellipse;whiteSpace=wrap;html=1;strokeWidth=6;rounded=0;" parent="1" vertex="1">
          <mxGeometry x="868" y="273" width="120" height="80" as="geometry" />
        </mxCell>
        <mxCell id="DqBkRv8KrqaulyezYVrb-36" value="&lt;div&gt;Κάλεσμα/ενημέρωση&lt;/div&gt;&lt;div&gt;σερβιτόρου&lt;br&gt;&lt;/div&gt;" style="ellipse;whiteSpace=wrap;html=1;rounded=0;" parent="1" vertex="1">
          <mxGeometry x="770.5" y="-47" width="120" height="80" as="geometry" />
        </mxCell>
        <mxCell id="DqBkRv8KrqaulyezYVrb-41" value="&lt;div&gt;Διαχείριση&lt;/div&gt;&lt;div&gt;αποθήκης&lt;/div&gt;" style="ellipse;whiteSpace=wrap;html=1;strokeWidth=6;rounded=0;" parent="1" vertex="1">
          <mxGeometry x="1079" y="-226" width="120" height="80" as="geometry" />
        </mxCell>
        <mxCell id="DqBkRv8KrqaulyezYVrb-58" value="" style="endArrow=none;html=1;rounded=0;entryX=0;entryY=0.5;entryDx=0;entryDy=0;" parent="1" source="DqBkRv8KrqaulyezYVrb-9" target="DqBkRv8KrqaulyezYVrb-21" edge="1">
          <mxGeometry width="50" height="50" relative="1" as="geometry">
            <mxPoint x="304" y="90" as="sourcePoint" />
            <mxPoint x="727" y="-176" as="targetPoint" />
          </mxGeometry>
        </mxCell>
        <mxCell id="DqBkRv8KrqaulyezYVrb-59" value="" style="endArrow=none;html=1;rounded=0;entryX=0;entryY=0.5;entryDx=0;entryDy=0;" parent="1" source="DqBkRv8KrqaulyezYVrb-9" target="DqBkRv8KrqaulyezYVrb-22" edge="1">
          <mxGeometry width="50" height="50" relative="1" as="geometry">
            <mxPoint x="363" y="38" as="sourcePoint" />
            <mxPoint x="715" y="-36" as="targetPoint" />
          </mxGeometry>
        </mxCell>
        <mxCell id="DqBkRv8KrqaulyezYVrb-61" value="" style="endArrow=none;html=1;rounded=0;entryX=0;entryY=0.5;entryDx=0;entryDy=0;" parent="1" source="DqBkRv8KrqaulyezYVrb-9" target="DqBkRv8KrqaulyezYVrb-17" edge="1">
          <mxGeometry width="50" height="50" relative="1" as="geometry">
            <mxPoint x="321" y="150.20999999999998" as="sourcePoint" />
            <mxPoint x="732" y="281.21" as="targetPoint" />
          </mxGeometry>
        </mxCell>
        <mxCell id="DqBkRv8KrqaulyezYVrb-62" value="" style="endArrow=none;html=1;rounded=0;entryX=0;entryY=0.5;entryDx=0;entryDy=0;" parent="1" source="DqBkRv8KrqaulyezYVrb-10" target="DqBkRv8KrqaulyezYVrb-35" edge="1">
          <mxGeometry width="50" height="50" relative="1" as="geometry">
            <mxPoint x="283" y="118" as="sourcePoint" />
            <mxPoint x="704" y="406" as="targetPoint" />
          </mxGeometry>
        </mxCell>
        <mxCell id="DqBkRv8KrqaulyezYVrb-68" value="" style="endArrow=none;html=1;rounded=0;entryX=0;entryY=0.5;entryDx=0;entryDy=0;" parent="1" source="DqBkRv8KrqaulyezYVrb-9" target="DqBkRv8KrqaulyezYVrb-32" edge="1">
          <mxGeometry width="50" height="50" relative="1" as="geometry">
            <mxPoint x="301" y="45" as="sourcePoint" />
            <mxPoint x="732" y="-296" as="targetPoint" />
          </mxGeometry>
        </mxCell>
        <mxCell id="DqBkRv8KrqaulyezYVrb-72" value="" style="endArrow=none;html=1;rounded=0;exitX=1;exitY=0.5;exitDx=0;exitDy=0;" parent="1" source="DqBkRv8KrqaulyezYVrb-41" target="DqBkRv8KrqaulyezYVrb-1" edge="1">
          <mxGeometry width="50" height="50" relative="1" as="geometry">
            <mxPoint x="1156" y="-5" as="sourcePoint" />
            <mxPoint x="1206" y="-55" as="targetPoint" />
          </mxGeometry>
        </mxCell>
        <mxCell id="DqBkRv8KrqaulyezYVrb-79" value="" style="endArrow=none;html=1;rounded=0;exitX=1;exitY=0.5;exitDx=0;exitDy=0;" parent="1" source="DqBkRv8KrqaulyezYVrb-18" target="DqBkRv8KrqaulyezYVrb-16" edge="1">
          <mxGeometry width="50" height="50" relative="1" as="geometry">
            <mxPoint x="966" y="359" as="sourcePoint" />
            <mxPoint x="1354" y="243" as="targetPoint" />
          </mxGeometry>
        </mxCell>
        <mxCell id="DqBkRv8KrqaulyezYVrb-80" value="" style="endArrow=none;html=1;rounded=0;exitX=1;exitY=0.5;exitDx=0;exitDy=0;" parent="1" source="DqBkRv8KrqaulyezYVrb-18" target="DqBkRv8KrqaulyezYVrb-12" edge="1">
          <mxGeometry width="50" height="50" relative="1" as="geometry">
            <mxPoint x="966" y="273" as="sourcePoint" />
            <mxPoint x="1354" y="157" as="targetPoint" />
          </mxGeometry>
        </mxCell>
        <mxCell id="DqBkRv8KrqaulyezYVrb-86" value="&lt;div&gt;Διαχείριση&lt;/div&gt;&lt;div&gt;προσωπικού&lt;br&gt;&lt;/div&gt;" style="ellipse;whiteSpace=wrap;html=1;rounded=0;" parent="1" vertex="1">
          <mxGeometry x="842" y="-427" width="120" height="80" as="geometry" />
        </mxCell>
        <mxCell id="DqBkRv8KrqaulyezYVrb-87" value="" style="endArrow=none;html=1;rounded=0;exitX=1;exitY=1;exitDx=0;exitDy=0;" parent="1" source="DqBkRv8KrqaulyezYVrb-22" target="DqBkRv8KrqaulyezYVrb-12" edge="1">
          <mxGeometry width="50" height="50" relative="1" as="geometry">
            <mxPoint x="980" y="153" as="sourcePoint" />
            <mxPoint x="1368" y="37" as="targetPoint" />
          </mxGeometry>
        </mxCell>
        <mxCell id="DqBkRv8KrqaulyezYVrb-92" value="&lt;div&gt;Πληρωμή&lt;/div&gt;&lt;div&gt;μισθών&lt;br&gt;&lt;/div&gt;" style="ellipse;whiteSpace=wrap;html=1;rounded=0;" parent="1" vertex="1">
          <mxGeometry x="898" y="-567" width="120" height="80" as="geometry" />
        </mxCell>
        <mxCell id="DqBkRv8KrqaulyezYVrb-110" value="" style="rounded=0;whiteSpace=wrap;html=1;fillColor=none;noLabel=0;editable=1;movable=1;resizable=1;rotatable=1;deletable=1;locked=0;connectable=1;pointerEvents=0;" parent="1" vertex="1">
          <mxGeometry x="375.5" y="-662" width="865" height="1269" as="geometry" />
        </mxCell>
        <mxCell id="DqBkRv8KrqaulyezYVrb-111" value="&lt;font style=&quot;font-size: 60px;&quot;&gt;Εστιατόριο&lt;/font&gt;" style="text;html=1;align=center;verticalAlign=middle;whiteSpace=wrap;rounded=0;" parent="1" vertex="1">
          <mxGeometry x="637.5" y="-662" width="341" height="66.5" as="geometry" />
        </mxCell>
        <mxCell id="DqBkRv8KrqaulyezYVrb-112" value="&lt;div&gt;Αλλαγη μηνιαίου&lt;/div&gt;&lt;div&gt;πλάνου&lt;br&gt;&lt;/div&gt;" style="ellipse;whiteSpace=wrap;html=1;rounded=0;" parent="1" vertex="1">
          <mxGeometry x="1042" y="-567" width="120" height="80" as="geometry" />
        </mxCell>
        <mxCell id="DqBkRv8KrqaulyezYVrb-127" value="" style="endArrow=none;html=1;rounded=0;entryX=0;entryY=0.5;entryDx=0;entryDy=0;" parent="1" source="DqBkRv8KrqaulyezYVrb-10" target="DqBkRv8KrqaulyezYVrb-34" edge="1">
          <mxGeometry width="50" height="50" relative="1" as="geometry">
            <mxPoint x="279" y="434" as="sourcePoint" />
            <mxPoint x="749" y="659" as="targetPoint" />
          </mxGeometry>
        </mxCell>
        <mxCell id="E7eFKCQ7DTerx9ZcQntK-2" value="" style="endArrow=none;html=1;rounded=0;entryX=0;entryY=0.5;entryDx=0;entryDy=0;" parent="1" source="DqBkRv8KrqaulyezYVrb-10" target="DqBkRv8KrqaulyezYVrb-27" edge="1">
          <mxGeometry width="50" height="50" relative="1" as="geometry">
            <mxPoint x="313" y="334" as="sourcePoint" />
            <mxPoint x="758" y="436" as="targetPoint" />
          </mxGeometry>
        </mxCell>
        <mxCell id="E7eFKCQ7DTerx9ZcQntK-3" value="" style="endArrow=none;html=1;rounded=0;entryX=0;entryY=0.5;entryDx=0;entryDy=0;" parent="1" source="DqBkRv8KrqaulyezYVrb-9" target="DqBkRv8KrqaulyezYVrb-27" edge="1">
          <mxGeometry width="50" height="50" relative="1" as="geometry">
            <mxPoint x="332" y="251" as="sourcePoint" />
            <mxPoint x="494" y="220" as="targetPoint" />
          </mxGeometry>
        </mxCell>
        <mxCell id="E7eFKCQ7DTerx9ZcQntK-9" value="" style="endArrow=none;html=1;rounded=0;entryX=0;entryY=0.5;entryDx=0;entryDy=0;" parent="1" source="DqBkRv8KrqaulyezYVrb-10" target="DqBkRv8KrqaulyezYVrb-24" edge="1">
          <mxGeometry width="50" height="50" relative="1" as="geometry">
            <mxPoint x="345" y="259" as="sourcePoint" />
            <mxPoint x="507" y="228" as="targetPoint" />
          </mxGeometry>
        </mxCell>
        <mxCell id="E7eFKCQ7DTerx9ZcQntK-10" value="" style="endArrow=none;html=1;rounded=0;exitX=1;exitY=0;exitDx=0;exitDy=0;" parent="1" source="DqBkRv8KrqaulyezYVrb-34" target="DqBkRv8KrqaulyezYVrb-1" edge="1">
          <mxGeometry width="50" height="50" relative="1" as="geometry">
            <mxPoint x="843" y="-16" as="sourcePoint" />
            <mxPoint x="1358" y="-121" as="targetPoint" />
          </mxGeometry>
        </mxCell>
        <mxCell id="E7eFKCQ7DTerx9ZcQntK-23" value="Προβολη&amp;nbsp;&lt;div&gt;λογαριασμου&lt;/div&gt;&lt;div&gt;φαγητου&lt;/div&gt;" style="ellipse;whiteSpace=wrap;html=1;rounded=0;" parent="1" vertex="1">
          <mxGeometry x="783" y="504" width="120" height="80" as="geometry" />
        </mxCell>
        <mxCell id="E7eFKCQ7DTerx9ZcQntK-25" value="Αξιολογηση&lt;div&gt;εστιατοριων&lt;/div&gt;" style="ellipse;whiteSpace=wrap;html=1;rounded=0;" parent="1" vertex="1">
          <mxGeometry x="625" y="-263" width="120" height="80" as="geometry" />
        </mxCell>
        <mxCell id="E7eFKCQ7DTerx9ZcQntK-30" value="" style="endArrow=none;html=1;rounded=0;entryX=0;entryY=0.5;entryDx=0;entryDy=0;" parent="1" source="DqBkRv8KrqaulyezYVrb-10" target="DqBkRv8KrqaulyezYVrb-17" edge="1">
          <mxGeometry width="50" height="50" relative="1" as="geometry">
            <mxPoint x="328" y="427" as="sourcePoint" />
            <mxPoint x="796" y="206" as="targetPoint" />
          </mxGeometry>
        </mxCell>
        <mxCell id="E7eFKCQ7DTerx9ZcQntK-35" value="" style="endArrow=none;html=1;rounded=0;exitX=1;exitY=1;exitDx=0;exitDy=0;" parent="1" source="DqBkRv8KrqaulyezYVrb-41" target="DqBkRv8KrqaulyezYVrb-11" edge="1">
          <mxGeometry width="50" height="50" relative="1" as="geometry">
            <mxPoint x="1417" y="125" as="sourcePoint" />
            <mxPoint x="1932" y="316" as="targetPoint" />
          </mxGeometry>
        </mxCell>
        <mxCell id="E6P0ZzLm57Q9IFtv4wpY-99" value="" style="endArrow=none;html=1;rounded=0;entryX=0;entryY=0.5;entryDx=0;entryDy=0;" edge="1" parent="1" source="DqBkRv8KrqaulyezYVrb-9" target="DqBkRv8KrqaulyezYVrb-24">
          <mxGeometry width="50" height="50" relative="1" as="geometry">
            <mxPoint x="153" y="378" as="sourcePoint" />
            <mxPoint x="379" y="40" as="targetPoint" />
          </mxGeometry>
        </mxCell>
        <mxCell id="E6P0ZzLm57Q9IFtv4wpY-103" value="&amp;lt;&amp;lt;extend&amp;gt;&amp;gt;" style="endArrow=open;endSize=12;dashed=1;html=1;rounded=0;exitX=0;exitY=0;exitDx=0;exitDy=0;entryX=1;entryY=1;entryDx=0;entryDy=0;" edge="1" parent="1" source="DqBkRv8KrqaulyezYVrb-36" target="DqBkRv8KrqaulyezYVrb-24">
          <mxGeometry width="160" relative="1" as="geometry">
            <mxPoint x="63" y="210" as="sourcePoint" />
            <mxPoint x="223" y="210" as="targetPoint" />
          </mxGeometry>
        </mxCell>
        <mxCell id="E6P0ZzLm57Q9IFtv4wpY-104" value="&amp;lt;&amp;lt;extend&amp;gt;&amp;gt;" style="endArrow=open;endSize=12;dashed=1;html=1;rounded=0;exitX=0;exitY=0.5;exitDx=0;exitDy=0;entryX=1;entryY=0.5;entryDx=0;entryDy=0;" edge="1" parent="1" source="DqBkRv8KrqaulyezYVrb-28" target="DqBkRv8KrqaulyezYVrb-24">
          <mxGeometry width="160" relative="1" as="geometry">
            <mxPoint x="66" y="176" as="sourcePoint" />
            <mxPoint x="226" y="176" as="targetPoint" />
          </mxGeometry>
        </mxCell>
        <mxCell id="E6P0ZzLm57Q9IFtv4wpY-105" value="&amp;lt;&amp;lt;extend&amp;gt;&amp;gt;" style="endArrow=open;endSize=12;dashed=1;html=1;rounded=0;exitX=0;exitY=0.5;exitDx=0;exitDy=0;entryX=1;entryY=0;entryDx=0;entryDy=0;" edge="1" parent="1" source="DqBkRv8KrqaulyezYVrb-23" target="DqBkRv8KrqaulyezYVrb-24">
          <mxGeometry width="160" relative="1" as="geometry">
            <mxPoint x="69" y="114.58" as="sourcePoint" />
            <mxPoint x="229" y="114.58" as="targetPoint" />
          </mxGeometry>
        </mxCell>
        <mxCell id="E6P0ZzLm57Q9IFtv4wpY-108" value="&lt;div&gt;Περιγραφή&lt;br&gt;καταστήματος&lt;br&gt;&lt;/div&gt;" style="ellipse;whiteSpace=wrap;html=1;rounded=0;" vertex="1" parent="1">
          <mxGeometry x="628" y="-420" width="120" height="80" as="geometry" />
        </mxCell>
        <mxCell id="E6P0ZzLm57Q9IFtv4wpY-109" value="&amp;lt;&amp;lt;extend&amp;gt;&amp;gt;" style="endArrow=open;endSize=12;dashed=1;html=1;rounded=0;exitX=0;exitY=0.5;exitDx=0;exitDy=0;entryX=1;entryY=0;entryDx=0;entryDy=0;" edge="1" parent="1" source="E6P0ZzLm57Q9IFtv4wpY-108" target="DqBkRv8KrqaulyezYVrb-21">
          <mxGeometry width="160" relative="1" as="geometry">
            <mxPoint x="828.79" y="-309" as="sourcePoint" />
            <mxPoint x="660.79" y="-280" as="targetPoint" />
          </mxGeometry>
        </mxCell>
        <mxCell id="E6P0ZzLm57Q9IFtv4wpY-110" value="&amp;lt;&amp;lt;extend&amp;gt;&amp;gt;" style="endArrow=open;endSize=12;dashed=1;html=1;rounded=0;exitX=0;exitY=0.5;exitDx=0;exitDy=0;entryX=1;entryY=1;entryDx=0;entryDy=0;" edge="1" parent="1" source="E7eFKCQ7DTerx9ZcQntK-25" target="DqBkRv8KrqaulyezYVrb-21">
          <mxGeometry width="160" relative="1" as="geometry">
            <mxPoint x="647" y="-216.72" as="sourcePoint" />
            <mxPoint x="604" y="-185.72" as="targetPoint" />
          </mxGeometry>
        </mxCell>
        <mxCell id="E6P0ZzLm57Q9IFtv4wpY-111" value="&amp;lt;&amp;lt;extend&amp;gt;&amp;gt;" style="endArrow=open;endSize=12;dashed=1;html=1;rounded=0;exitX=0;exitY=0.5;exitDx=0;exitDy=0;entryX=1;entryY=0.5;entryDx=0;entryDy=0;" edge="1" parent="1" source="DqBkRv8KrqaulyezYVrb-18" target="DqBkRv8KrqaulyezYVrb-27">
          <mxGeometry width="160" relative="1" as="geometry">
            <mxPoint x="741.93" y="394.28" as="sourcePoint" />
            <mxPoint x="582.93" y="349.28" as="targetPoint" />
          </mxGeometry>
        </mxCell>
        <mxCell id="E6P0ZzLm57Q9IFtv4wpY-114" value="Υπάλληλος" style="shape=umlActor;verticalLabelPosition=bottom;verticalAlign=top;html=1;outlineConnect=0;rounded=0;" vertex="1" parent="1">
          <mxGeometry x="1370" y="172" width="30" height="60" as="geometry" />
        </mxCell>
        <mxCell id="E6P0ZzLm57Q9IFtv4wpY-115" value="" style="endArrow=none;html=1;rounded=0;exitX=1;exitY=0.5;exitDx=0;exitDy=0;" edge="1" parent="1" source="DqBkRv8KrqaulyezYVrb-34" target="E6P0ZzLm57Q9IFtv4wpY-114">
          <mxGeometry width="50" height="50" relative="1" as="geometry">
            <mxPoint x="1392.5" y="224" as="sourcePoint" />
            <mxPoint x="1941.5" y="539" as="targetPoint" />
          </mxGeometry>
        </mxCell>
        <mxCell id="E6P0ZzLm57Q9IFtv4wpY-116" value="" style="endArrow=none;html=1;rounded=0;exitX=1;exitY=0.5;exitDx=0;exitDy=0;" edge="1" parent="1" source="DqBkRv8KrqaulyezYVrb-17" target="E6P0ZzLm57Q9IFtv4wpY-114">
          <mxGeometry width="50" height="50" relative="1" as="geometry">
            <mxPoint x="851" y="246" as="sourcePoint" />
            <mxPoint x="1783.5" y="686" as="targetPoint" />
          </mxGeometry>
        </mxCell>
        <mxCell id="E6P0ZzLm57Q9IFtv4wpY-117" value="" style="endArrow=none;html=1;rounded=0;exitX=1;exitY=0.5;exitDx=0;exitDy=0;" edge="1" parent="1" source="DqBkRv8KrqaulyezYVrb-35" target="E6P0ZzLm57Q9IFtv4wpY-114">
          <mxGeometry width="50" height="50" relative="1" as="geometry">
            <mxPoint x="753" y="439" as="sourcePoint" />
            <mxPoint x="1776.5" y="775" as="targetPoint" />
          </mxGeometry>
        </mxCell>
        <mxCell id="E6P0ZzLm57Q9IFtv4wpY-121" value="" style="endArrow=block;endSize=16;endFill=0;html=1;rounded=0;exitX=1;exitY=0.3333333333333333;exitDx=0;exitDy=0;exitPerimeter=0;" edge="1" parent="1" source="DqBkRv8KrqaulyezYVrb-11" target="E6P0ZzLm57Q9IFtv4wpY-114">
          <mxGeometry width="160" relative="1" as="geometry">
            <mxPoint x="1552" y="332" as="sourcePoint" />
            <mxPoint x="1353" y="167" as="targetPoint" />
          </mxGeometry>
        </mxCell>
        <mxCell id="E6P0ZzLm57Q9IFtv4wpY-122" value="" style="endArrow=block;endSize=16;endFill=0;html=1;rounded=0;exitX=1;exitY=0.3333333333333333;exitDx=0;exitDy=0;exitPerimeter=0;" edge="1" parent="1" source="DqBkRv8KrqaulyezYVrb-12" target="E6P0ZzLm57Q9IFtv4wpY-114">
          <mxGeometry width="160" relative="1" as="geometry">
            <mxPoint x="1426" y="387" as="sourcePoint" />
            <mxPoint x="1586" y="387" as="targetPoint" />
          </mxGeometry>
        </mxCell>
        <mxCell id="E6P0ZzLm57Q9IFtv4wpY-123" value="" style="endArrow=block;endSize=16;endFill=0;html=1;rounded=0;exitX=1;exitY=0.3333333333333333;exitDx=0;exitDy=0;exitPerimeter=0;curved=0;" edge="1" parent="1" source="DqBkRv8KrqaulyezYVrb-16" target="E6P0ZzLm57Q9IFtv4wpY-114">
          <mxGeometry width="160" relative="1" as="geometry">
            <mxPoint x="1423" y="465" as="sourcePoint" />
            <mxPoint x="1583" y="465" as="targetPoint" />
          </mxGeometry>
        </mxCell>
        <mxCell id="E6P0ZzLm57Q9IFtv4wpY-202" value="Χάρτης" style="ellipse;whiteSpace=wrap;html=1;rounded=0;" vertex="1" parent="1">
          <mxGeometry x="748" y="-338" width="120" height="80" as="geometry" />
        </mxCell>
        <mxCell id="E6P0ZzLm57Q9IFtv4wpY-203" value="&amp;lt;&amp;lt;extend&amp;gt;&amp;gt;" style="endArrow=open;endSize=12;dashed=1;html=1;rounded=0;exitX=0;exitY=0.5;exitDx=0;exitDy=0;entryX=1;entryY=0.5;entryDx=0;entryDy=0;" edge="1" parent="1" source="E6P0ZzLm57Q9IFtv4wpY-202" target="DqBkRv8KrqaulyezYVrb-21">
          <mxGeometry width="160" relative="1" as="geometry">
            <mxPoint x="731.57" y="-337.5" as="sourcePoint" />
            <mxPoint x="652.57" y="-290.5" as="targetPoint" />
          </mxGeometry>
        </mxCell>
        <mxCell id="E6P0ZzLm57Q9IFtv4wpY-206" value="&amp;lt;&amp;lt;extend&amp;gt;&amp;gt;" style="endArrow=open;endSize=12;dashed=1;html=1;rounded=0;exitX=0;exitY=0.5;exitDx=0;exitDy=0;entryX=1;entryY=1;entryDx=0;entryDy=0;" edge="1" parent="1" source="E7eFKCQ7DTerx9ZcQntK-23" target="DqBkRv8KrqaulyezYVrb-27">
          <mxGeometry width="160" relative="1" as="geometry">
            <mxPoint x="841" y="534" as="sourcePoint" />
            <mxPoint x="679" y="531" as="targetPoint" />
          </mxGeometry>
        </mxCell>
        <mxCell id="E6P0ZzLm57Q9IFtv4wpY-269" value="&lt;div&gt;Διαχείριση&lt;br&gt;&lt;/div&gt;&lt;div&gt;λογαριασμού&lt;/div&gt;&lt;div&gt;εστιατοριου&lt;/div&gt;" style="ellipse;whiteSpace=wrap;html=1;" vertex="1" parent="1">
          <mxGeometry x="1074" y="-435" width="120" height="80" as="geometry" />
        </mxCell>
        <mxCell id="E6P0ZzLm57Q9IFtv4wpY-270" value="&amp;lt;&amp;lt;extend&amp;gt;&amp;gt;" style="endArrow=open;endSize=12;dashed=1;html=1;rounded=0;exitX=0.5;exitY=0;exitDx=0;exitDy=0;entryX=0.5;entryY=1;entryDx=0;entryDy=0;" edge="1" parent="1" source="E6P0ZzLm57Q9IFtv4wpY-269" target="DqBkRv8KrqaulyezYVrb-112">
          <mxGeometry width="160" relative="1" as="geometry">
            <mxPoint x="1494" y="-428" as="sourcePoint" />
            <mxPoint x="1317" y="-428" as="targetPoint" />
          </mxGeometry>
        </mxCell>
        <mxCell id="E6P0ZzLm57Q9IFtv4wpY-271" value="&amp;lt;&amp;lt;extend&amp;gt;&amp;gt;" style="endArrow=open;endSize=12;dashed=1;html=1;rounded=0;exitX=0;exitY=0;exitDx=0;exitDy=0;entryX=1;entryY=1;entryDx=0;entryDy=0;" edge="1" parent="1" source="E6P0ZzLm57Q9IFtv4wpY-269" target="DqBkRv8KrqaulyezYVrb-92">
          <mxGeometry width="160" relative="1" as="geometry">
            <mxPoint x="1483" y="-371" as="sourcePoint" />
            <mxPoint x="1306" y="-371" as="targetPoint" />
          </mxGeometry>
        </mxCell>
        <mxCell id="E6P0ZzLm57Q9IFtv4wpY-272" value="&amp;lt;&amp;lt;extend&amp;gt;&amp;gt;" style="endArrow=open;endSize=12;dashed=1;html=1;rounded=0;exitX=0;exitY=0.5;exitDx=0;exitDy=0;entryX=0.921;entryY=0.792;entryDx=0;entryDy=0;entryPerimeter=0;" edge="1" parent="1" source="E6P0ZzLm57Q9IFtv4wpY-269" target="DqBkRv8KrqaulyezYVrb-20">
          <mxGeometry width="160" relative="1" as="geometry">
            <mxPoint x="1473.5" y="-327" as="sourcePoint" />
            <mxPoint x="1296.5" y="-327" as="targetPoint" />
          </mxGeometry>
        </mxCell>
        <mxCell id="E6P0ZzLm57Q9IFtv4wpY-273" value="&amp;lt;&amp;lt;extend&amp;gt;&amp;gt;" style="endArrow=open;endSize=12;dashed=1;html=1;rounded=0;exitX=0;exitY=1;exitDx=0;exitDy=0;entryX=1;entryY=0.5;entryDx=0;entryDy=0;" edge="1" parent="1" source="E6P0ZzLm57Q9IFtv4wpY-269" target="DqBkRv8KrqaulyezYVrb-86">
          <mxGeometry width="160" relative="1" as="geometry">
            <mxPoint x="1452" y="-284" as="sourcePoint" />
            <mxPoint x="1275" y="-284" as="targetPoint" />
          </mxGeometry>
        </mxCell>
        <mxCell id="E6P0ZzLm57Q9IFtv4wpY-274" value="" style="endArrow=none;html=1;rounded=0;exitX=1;exitY=1;exitDx=0;exitDy=0;" edge="1" parent="1" source="E6P0ZzLm57Q9IFtv4wpY-269" target="DqBkRv8KrqaulyezYVrb-1">
          <mxGeometry width="50" height="50" relative="1" as="geometry">
            <mxPoint x="1194" y="-240" as="sourcePoint" />
            <mxPoint x="1404" y="-240" as="targetPoint" />
          </mxGeometry>
        </mxCell>
        <mxCell id="E6P0ZzLm57Q9IFtv4wpY-275" value="Ενημερωση&lt;div&gt;χαμηλης ποσότητας&lt;/div&gt;" style="ellipse;whiteSpace=wrap;html=1;" vertex="1" parent="1">
          <mxGeometry x="898" y="-314" width="120" height="80" as="geometry" />
        </mxCell>
        <mxCell id="E6P0ZzLm57Q9IFtv4wpY-276" value="&amp;lt;&amp;lt;extend&amp;gt;&amp;gt;" style="endArrow=open;endSize=12;dashed=1;html=1;rounded=0;exitX=1;exitY=0.5;exitDx=0;exitDy=0;entryX=0;entryY=0.5;entryDx=0;entryDy=0;" edge="1" parent="1" source="E6P0ZzLm57Q9IFtv4wpY-275" target="DqBkRv8KrqaulyezYVrb-41">
          <mxGeometry width="160" relative="1" as="geometry">
            <mxPoint x="1302" y="-359" as="sourcePoint" />
            <mxPoint x="1297" y="-465" as="targetPoint" />
          </mxGeometry>
        </mxCell>
        <mxCell id="E6P0ZzLm57Q9IFtv4wpY-277" value="&amp;lt;&amp;lt;extend&amp;gt;&amp;gt;" style="endArrow=open;endSize=12;dashed=1;html=1;rounded=0;exitX=0.5;exitY=0;exitDx=0;exitDy=0;entryX=0.5;entryY=1;entryDx=0;entryDy=0;" edge="1" source="E6P0ZzLm57Q9IFtv4wpY-278" parent="1" target="DqBkRv8KrqaulyezYVrb-41">
          <mxGeometry width="160" relative="1" as="geometry">
            <mxPoint x="1357" y="-263" as="sourcePoint" />
            <mxPoint x="1164" y="-80" as="targetPoint" />
          </mxGeometry>
        </mxCell>
        <mxCell id="E6P0ZzLm57Q9IFtv4wpY-278" value="Αυτοματοποιημενη&lt;div&gt;παραγγελια σε&lt;/div&gt;&lt;div&gt;προμηθευτη&lt;/div&gt;" style="ellipse;whiteSpace=wrap;html=1;" vertex="1" parent="1">
          <mxGeometry x="992" y="-84" width="120" height="80" as="geometry" />
        </mxCell>
      </root>
    </mxGraphModel>
  </diagram>
</mxfile>
